<mxfile host="app.diagrams.net" agent="Mozilla/5.0 (Macintosh; Intel Mac OS X 10_15_7) AppleWebKit/537.36 (KHTML, like Gecko) Chrome/130.0.0.0 Safari/537.36" version="25.0.3">
  <diagram name="第 1 页" id="EdteacYz6vKTjwanOmzF">
    <mxGraphModel dx="1131" dy="780" grid="1" gridSize="10" guides="1" tooltips="1" connect="1" arrows="1" fold="1" page="1" pageScale="1" pageWidth="827" pageHeight="1169" math="0" shadow="0">
      <root>
        <mxCell id="0" />
        <mxCell id="1" parent="0" />
        <mxCell id="z5xuCMSu4rYJhh60pKTj-1" value="embedding&lt;div&gt;&lt;br&gt;&lt;/div&gt;&lt;div&gt;vocab_size * embedding_size&lt;/div&gt;" style="rounded=0;whiteSpace=wrap;html=1;" vertex="1" parent="1">
          <mxGeometry x="50" y="160" width="120" height="60" as="geometry" />
        </mxCell>
        <mxCell id="z5xuCMSu4rYJhh60pKTj-2" value="" style="endArrow=classic;html=1;rounded=0;entryX=0.5;entryY=1;entryDx=0;entryDy=0;" edge="1" parent="1" target="z5xuCMSu4rYJhh60pKTj-1">
          <mxGeometry width="50" height="50" relative="1" as="geometry">
            <mxPoint x="110" y="260" as="sourcePoint" />
            <mxPoint x="100" y="260" as="targetPoint" />
          </mxGeometry>
        </mxCell>
        <mxCell id="z5xuCMSu4rYJhh60pKTj-3" value="n个数，每个值在[0,vocab_size)之间取整数&amp;nbsp; &amp;nbsp;" style="text;html=1;align=center;verticalAlign=middle;whiteSpace=wrap;rounded=0;" vertex="1" parent="1">
          <mxGeometry x="50" y="270" width="115" height="30" as="geometry" />
        </mxCell>
        <mxCell id="z5xuCMSu4rYJhh60pKTj-5" value="" style="endArrow=classic;html=1;rounded=0;exitX=0.5;exitY=0;exitDx=0;exitDy=0;" edge="1" parent="1" source="z5xuCMSu4rYJhh60pKTj-1">
          <mxGeometry width="50" height="50" relative="1" as="geometry">
            <mxPoint x="130" y="90" as="sourcePoint" />
            <mxPoint x="110" y="120" as="targetPoint" />
          </mxGeometry>
        </mxCell>
        <mxCell id="z5xuCMSu4rYJhh60pKTj-6" value="n*embedding_size" style="text;html=1;align=center;verticalAlign=middle;whiteSpace=wrap;rounded=0;" vertex="1" parent="1">
          <mxGeometry x="12.5" y="90" width="190" height="30" as="geometry" />
        </mxCell>
        <mxCell id="z5xuCMSu4rYJhh60pKTj-22" style="edgeStyle=orthogonalEdgeStyle;rounded=0;orthogonalLoop=1;jettySize=auto;html=1;exitX=0.25;exitY=0;exitDx=0;exitDy=0;entryX=0.5;entryY=1;entryDx=0;entryDy=0;" edge="1" parent="1" source="z5xuCMSu4rYJhh60pKTj-7" target="z5xuCMSu4rYJhh60pKTj-19">
          <mxGeometry relative="1" as="geometry" />
        </mxCell>
        <mxCell id="z5xuCMSu4rYJhh60pKTj-23" style="edgeStyle=orthogonalEdgeStyle;rounded=0;orthogonalLoop=1;jettySize=auto;html=1;exitX=0.5;exitY=0;exitDx=0;exitDy=0;entryX=0.5;entryY=1;entryDx=0;entryDy=0;" edge="1" parent="1" source="z5xuCMSu4rYJhh60pKTj-7" target="z5xuCMSu4rYJhh60pKTj-20">
          <mxGeometry relative="1" as="geometry" />
        </mxCell>
        <mxCell id="z5xuCMSu4rYJhh60pKTj-26" style="edgeStyle=orthogonalEdgeStyle;rounded=0;orthogonalLoop=1;jettySize=auto;html=1;exitX=0.75;exitY=0;exitDx=0;exitDy=0;entryX=0.5;entryY=1;entryDx=0;entryDy=0;" edge="1" parent="1" source="z5xuCMSu4rYJhh60pKTj-7" target="z5xuCMSu4rYJhh60pKTj-21">
          <mxGeometry relative="1" as="geometry" />
        </mxCell>
        <mxCell id="z5xuCMSu4rYJhh60pKTj-7" value="shared model" style="rounded=0;whiteSpace=wrap;html=1;" vertex="1" parent="1">
          <mxGeometry x="300" y="220" width="170" height="30" as="geometry" />
        </mxCell>
        <mxCell id="z5xuCMSu4rYJhh60pKTj-8" value="split1" style="rounded=0;whiteSpace=wrap;html=1;dashed=1;" vertex="1" parent="1">
          <mxGeometry x="300" y="270" width="50" height="20" as="geometry" />
        </mxCell>
        <mxCell id="z5xuCMSu4rYJhh60pKTj-11" style="edgeStyle=orthogonalEdgeStyle;rounded=0;orthogonalLoop=1;jettySize=auto;html=1;exitX=0.5;exitY=0;exitDx=0;exitDy=0;entryX=0.5;entryY=1;entryDx=0;entryDy=0;" edge="1" parent="1" source="z5xuCMSu4rYJhh60pKTj-10" target="z5xuCMSu4rYJhh60pKTj-8">
          <mxGeometry relative="1" as="geometry">
            <Array as="points">
              <mxPoint x="384" y="310" />
              <mxPoint x="325" y="310" />
            </Array>
          </mxGeometry>
        </mxCell>
        <mxCell id="z5xuCMSu4rYJhh60pKTj-14" style="edgeStyle=orthogonalEdgeStyle;rounded=0;orthogonalLoop=1;jettySize=auto;html=1;exitX=0.5;exitY=0;exitDx=0;exitDy=0;entryX=0.5;entryY=1;entryDx=0;entryDy=0;" edge="1" parent="1" source="z5xuCMSu4rYJhh60pKTj-10" target="z5xuCMSu4rYJhh60pKTj-12">
          <mxGeometry relative="1" as="geometry" />
        </mxCell>
        <mxCell id="z5xuCMSu4rYJhh60pKTj-15" style="edgeStyle=orthogonalEdgeStyle;rounded=0;orthogonalLoop=1;jettySize=auto;html=1;exitX=0.5;exitY=0;exitDx=0;exitDy=0;entryX=0.5;entryY=1;entryDx=0;entryDy=0;" edge="1" parent="1" source="z5xuCMSu4rYJhh60pKTj-10" target="z5xuCMSu4rYJhh60pKTj-13">
          <mxGeometry relative="1" as="geometry">
            <Array as="points">
              <mxPoint x="384" y="310" />
              <mxPoint x="445" y="310" />
            </Array>
          </mxGeometry>
        </mxCell>
        <mxCell id="z5xuCMSu4rYJhh60pKTj-10" value="input" style="text;html=1;align=center;verticalAlign=middle;whiteSpace=wrap;rounded=0;" vertex="1" parent="1">
          <mxGeometry x="354" y="320" width="60" height="30" as="geometry" />
        </mxCell>
        <mxCell id="z5xuCMSu4rYJhh60pKTj-17" style="edgeStyle=orthogonalEdgeStyle;rounded=0;orthogonalLoop=1;jettySize=auto;html=1;exitX=0.5;exitY=0;exitDx=0;exitDy=0;entryX=0.5;entryY=1;entryDx=0;entryDy=0;" edge="1" parent="1" source="z5xuCMSu4rYJhh60pKTj-12" target="z5xuCMSu4rYJhh60pKTj-7">
          <mxGeometry relative="1" as="geometry" />
        </mxCell>
        <mxCell id="z5xuCMSu4rYJhh60pKTj-12" value="split2" style="rounded=0;whiteSpace=wrap;html=1;dashed=1;" vertex="1" parent="1">
          <mxGeometry x="360" y="270" width="50" height="20" as="geometry" />
        </mxCell>
        <mxCell id="z5xuCMSu4rYJhh60pKTj-13" value="split3" style="rounded=0;whiteSpace=wrap;html=1;dashed=1;" vertex="1" parent="1">
          <mxGeometry x="420" y="270" width="50" height="20" as="geometry" />
        </mxCell>
        <mxCell id="z5xuCMSu4rYJhh60pKTj-16" style="edgeStyle=orthogonalEdgeStyle;rounded=0;orthogonalLoop=1;jettySize=auto;html=1;exitX=0.5;exitY=0;exitDx=0;exitDy=0;entryX=0.147;entryY=1.025;entryDx=0;entryDy=0;entryPerimeter=0;" edge="1" parent="1" source="z5xuCMSu4rYJhh60pKTj-8" target="z5xuCMSu4rYJhh60pKTj-7">
          <mxGeometry relative="1" as="geometry" />
        </mxCell>
        <mxCell id="z5xuCMSu4rYJhh60pKTj-18" style="edgeStyle=orthogonalEdgeStyle;rounded=0;orthogonalLoop=1;jettySize=auto;html=1;exitX=0.5;exitY=0;exitDx=0;exitDy=0;entryX=0.856;entryY=0.975;entryDx=0;entryDy=0;entryPerimeter=0;" edge="1" parent="1" source="z5xuCMSu4rYJhh60pKTj-13" target="z5xuCMSu4rYJhh60pKTj-7">
          <mxGeometry relative="1" as="geometry" />
        </mxCell>
        <mxCell id="z5xuCMSu4rYJhh60pKTj-28" style="edgeStyle=orthogonalEdgeStyle;rounded=0;orthogonalLoop=1;jettySize=auto;html=1;exitX=0.5;exitY=0;exitDx=0;exitDy=0;entryX=0.5;entryY=1;entryDx=0;entryDy=0;" edge="1" parent="1" source="z5xuCMSu4rYJhh60pKTj-19" target="z5xuCMSu4rYJhh60pKTj-27">
          <mxGeometry relative="1" as="geometry">
            <Array as="points">
              <mxPoint x="325" y="160" />
              <mxPoint x="382" y="160" />
            </Array>
          </mxGeometry>
        </mxCell>
        <mxCell id="z5xuCMSu4rYJhh60pKTj-19" value="output1" style="rounded=0;whiteSpace=wrap;html=1;dashed=1;" vertex="1" parent="1">
          <mxGeometry x="300" y="170" width="50" height="20" as="geometry" />
        </mxCell>
        <mxCell id="z5xuCMSu4rYJhh60pKTj-29" style="edgeStyle=orthogonalEdgeStyle;rounded=0;orthogonalLoop=1;jettySize=auto;html=1;exitX=0.5;exitY=0;exitDx=0;exitDy=0;entryX=0.5;entryY=1;entryDx=0;entryDy=0;" edge="1" parent="1" source="z5xuCMSu4rYJhh60pKTj-20" target="z5xuCMSu4rYJhh60pKTj-27">
          <mxGeometry relative="1" as="geometry" />
        </mxCell>
        <mxCell id="z5xuCMSu4rYJhh60pKTj-20" value="output2" style="rounded=0;whiteSpace=wrap;html=1;dashed=1;" vertex="1" parent="1">
          <mxGeometry x="360" y="170" width="50" height="20" as="geometry" />
        </mxCell>
        <mxCell id="z5xuCMSu4rYJhh60pKTj-30" style="edgeStyle=orthogonalEdgeStyle;rounded=0;orthogonalLoop=1;jettySize=auto;html=1;exitX=0.5;exitY=0;exitDx=0;exitDy=0;entryX=0.5;entryY=1;entryDx=0;entryDy=0;" edge="1" parent="1" source="z5xuCMSu4rYJhh60pKTj-21" target="z5xuCMSu4rYJhh60pKTj-27">
          <mxGeometry relative="1" as="geometry">
            <Array as="points">
              <mxPoint x="445" y="160" />
              <mxPoint x="382" y="160" />
            </Array>
          </mxGeometry>
        </mxCell>
        <mxCell id="z5xuCMSu4rYJhh60pKTj-21" value="output3" style="rounded=0;whiteSpace=wrap;html=1;dashed=1;" vertex="1" parent="1">
          <mxGeometry x="420" y="170" width="50" height="20" as="geometry" />
        </mxCell>
        <mxCell id="z5xuCMSu4rYJhh60pKTj-27" value="汇总" style="rounded=0;whiteSpace=wrap;html=1;" vertex="1" parent="1">
          <mxGeometry x="294" y="120" width="176" height="30" as="geometry" />
        </mxCell>
        <mxCell id="z5xuCMSu4rYJhh60pKTj-31" value="" style="shape=flexArrow;endArrow=classic;html=1;rounded=0;" edge="1" parent="1">
          <mxGeometry width="50" height="50" relative="1" as="geometry">
            <mxPoint x="310" y="270" as="sourcePoint" />
            <mxPoint x="310" y="200" as="targetPoint" />
          </mxGeometry>
        </mxCell>
        <mxCell id="z5xuCMSu4rYJhh60pKTj-32" value="独立" style="edgeLabel;html=1;align=center;verticalAlign=middle;resizable=0;points=[];" vertex="1" connectable="0" parent="z5xuCMSu4rYJhh60pKTj-31">
          <mxGeometry x="0.5643" y="3" relative="1" as="geometry">
            <mxPoint as="offset" />
          </mxGeometry>
        </mxCell>
        <mxCell id="z5xuCMSu4rYJhh60pKTj-33" value="" style="endArrow=classic;html=1;rounded=0;exitX=0.5;exitY=0;exitDx=0;exitDy=0;" edge="1" parent="1" source="z5xuCMSu4rYJhh60pKTj-27">
          <mxGeometry width="50" height="50" relative="1" as="geometry">
            <mxPoint x="390" y="80" as="sourcePoint" />
            <mxPoint x="382" y="100" as="targetPoint" />
          </mxGeometry>
        </mxCell>
        <mxCell id="z5xuCMSu4rYJhh60pKTj-34" value="output" style="text;html=1;align=center;verticalAlign=middle;whiteSpace=wrap;rounded=0;glass=1;" vertex="1" parent="1">
          <mxGeometry x="350" y="75" width="60" height="30" as="geometry" />
        </mxCell>
        <mxCell id="z5xuCMSu4rYJhh60pKTj-43" style="edgeStyle=orthogonalEdgeStyle;rounded=0;orthogonalLoop=1;jettySize=auto;html=1;exitX=0.25;exitY=0;exitDx=0;exitDy=0;entryX=0.25;entryY=1;entryDx=0;entryDy=0;" edge="1" parent="1">
          <mxGeometry relative="1" as="geometry">
            <mxPoint x="60" y="660" as="sourcePoint" />
            <mxPoint x="60" y="640" as="targetPoint" />
          </mxGeometry>
        </mxCell>
        <mxCell id="z5xuCMSu4rYJhh60pKTj-52" style="edgeStyle=orthogonalEdgeStyle;rounded=0;orthogonalLoop=1;jettySize=auto;html=1;exitX=0.5;exitY=0;exitDx=0;exitDy=0;" edge="1" parent="1">
          <mxGeometry relative="1" as="geometry">
            <mxPoint x="131" y="660" as="sourcePoint" />
            <mxPoint x="131" y="640" as="targetPoint" />
          </mxGeometry>
        </mxCell>
        <mxCell id="z5xuCMSu4rYJhh60pKTj-56" style="edgeStyle=orthogonalEdgeStyle;rounded=0;orthogonalLoop=1;jettySize=auto;html=1;exitX=0.75;exitY=0;exitDx=0;exitDy=0;entryX=0.75;entryY=1;entryDx=0;entryDy=0;" edge="1" parent="1">
          <mxGeometry relative="1" as="geometry">
            <mxPoint x="209" y="660" as="sourcePoint" />
            <mxPoint x="209" y="640" as="targetPoint" />
          </mxGeometry>
        </mxCell>
        <mxCell id="z5xuCMSu4rYJhh60pKTj-36" value="embedding" style="rounded=0;whiteSpace=wrap;html=1;" vertex="1" parent="1">
          <mxGeometry x="40" y="660" width="200" height="25" as="geometry" />
        </mxCell>
        <mxCell id="z5xuCMSu4rYJhh60pKTj-38" value="node1 layer info" style="text;html=1;align=center;verticalAlign=middle;whiteSpace=wrap;rounded=0;" vertex="1" parent="1">
          <mxGeometry x="30" y="700" width="60" height="30" as="geometry" />
        </mxCell>
        <mxCell id="z5xuCMSu4rYJhh60pKTj-39" value="node2 layer info" style="text;html=1;align=center;verticalAlign=middle;whiteSpace=wrap;rounded=0;" vertex="1" parent="1">
          <mxGeometry x="101" y="700" width="60" height="30" as="geometry" />
        </mxCell>
        <mxCell id="z5xuCMSu4rYJhh60pKTj-40" value="node3 layer info" style="text;html=1;align=center;verticalAlign=middle;whiteSpace=wrap;rounded=0;" vertex="1" parent="1">
          <mxGeometry x="180" y="700" width="60" height="30" as="geometry" />
        </mxCell>
        <mxCell id="z5xuCMSu4rYJhh60pKTj-41" value="" style="endArrow=classic;html=1;rounded=0;exitX=0.5;exitY=0;exitDx=0;exitDy=0;entryX=0.105;entryY=0.975;entryDx=0;entryDy=0;entryPerimeter=0;" edge="1" parent="1" source="z5xuCMSu4rYJhh60pKTj-38" target="z5xuCMSu4rYJhh60pKTj-36">
          <mxGeometry width="50" height="50" relative="1" as="geometry">
            <mxPoint x="70" y="650" as="sourcePoint" />
            <mxPoint x="120" y="600" as="targetPoint" />
          </mxGeometry>
        </mxCell>
        <mxCell id="z5xuCMSu4rYJhh60pKTj-42" value="FM layer" style="rounded=0;whiteSpace=wrap;html=1;" vertex="1" parent="1">
          <mxGeometry x="40" y="610" width="200" height="30" as="geometry" />
        </mxCell>
        <mxCell id="z5xuCMSu4rYJhh60pKTj-46" value="" style="endArrow=classic;html=1;rounded=0;" edge="1" parent="1">
          <mxGeometry width="50" height="50" relative="1" as="geometry">
            <mxPoint x="130" y="610" as="sourcePoint" />
            <mxPoint x="130" y="590" as="targetPoint" />
          </mxGeometry>
        </mxCell>
        <mxCell id="z5xuCMSu4rYJhh60pKTj-47" value="" style="rounded=0;whiteSpace=wrap;html=1;dashed=1;" vertex="1" parent="1">
          <mxGeometry x="41" y="570" width="199" height="20" as="geometry" />
        </mxCell>
        <mxCell id="z5xuCMSu4rYJhh60pKTj-48" value="o1" style="text;html=1;align=center;verticalAlign=middle;whiteSpace=wrap;rounded=0;" vertex="1" parent="1">
          <mxGeometry x="30" y="565" width="60" height="30" as="geometry" />
        </mxCell>
        <mxCell id="z5xuCMSu4rYJhh60pKTj-49" value="o2" style="text;html=1;align=center;verticalAlign=middle;whiteSpace=wrap;rounded=0;" vertex="1" parent="1">
          <mxGeometry x="100" y="572" width="60" height="15" as="geometry" />
        </mxCell>
        <mxCell id="z5xuCMSu4rYJhh60pKTj-50" value="o3" style="text;html=1;align=center;verticalAlign=middle;whiteSpace=wrap;rounded=0;" vertex="1" parent="1">
          <mxGeometry x="180" y="565" width="60" height="30" as="geometry" />
        </mxCell>
        <mxCell id="z5xuCMSu4rYJhh60pKTj-51" style="edgeStyle=orthogonalEdgeStyle;rounded=0;orthogonalLoop=1;jettySize=auto;html=1;exitX=0.5;exitY=0;exitDx=0;exitDy=0;entryX=0.45;entryY=0.99;entryDx=0;entryDy=0;entryPerimeter=0;" edge="1" parent="1" source="z5xuCMSu4rYJhh60pKTj-39" target="z5xuCMSu4rYJhh60pKTj-36">
          <mxGeometry relative="1" as="geometry" />
        </mxCell>
        <mxCell id="z5xuCMSu4rYJhh60pKTj-55" style="edgeStyle=orthogonalEdgeStyle;rounded=0;orthogonalLoop=1;jettySize=auto;html=1;exitX=0.5;exitY=0;exitDx=0;exitDy=0;entryX=0.853;entryY=0.95;entryDx=0;entryDy=0;entryPerimeter=0;" edge="1" parent="1" source="z5xuCMSu4rYJhh60pKTj-40" target="z5xuCMSu4rYJhh60pKTj-36">
          <mxGeometry relative="1" as="geometry" />
        </mxCell>
        <mxCell id="z5xuCMSu4rYJhh60pKTj-61" style="edgeStyle=orthogonalEdgeStyle;rounded=0;orthogonalLoop=1;jettySize=auto;html=1;exitX=0.5;exitY=0;exitDx=0;exitDy=0;entryX=0.5;entryY=1;entryDx=0;entryDy=0;" edge="1" parent="1" source="z5xuCMSu4rYJhh60pKTj-57" target="z5xuCMSu4rYJhh60pKTj-60">
          <mxGeometry relative="1" as="geometry" />
        </mxCell>
        <mxCell id="z5xuCMSu4rYJhh60pKTj-57" value="linear layer" style="rounded=0;whiteSpace=wrap;html=1;" vertex="1" parent="1">
          <mxGeometry x="260" y="650" width="120" height="35" as="geometry" />
        </mxCell>
        <mxCell id="z5xuCMSu4rYJhh60pKTj-58" value="" style="endArrow=classic;html=1;rounded=0;entryX=0.5;entryY=1;entryDx=0;entryDy=0;" edge="1" parent="1" target="z5xuCMSu4rYJhh60pKTj-57">
          <mxGeometry width="50" height="50" relative="1" as="geometry">
            <mxPoint x="320" y="700" as="sourcePoint" />
            <mxPoint x="350" y="720" as="targetPoint" />
          </mxGeometry>
        </mxCell>
        <mxCell id="z5xuCMSu4rYJhh60pKTj-59" value="other node features" style="text;html=1;align=center;verticalAlign=middle;whiteSpace=wrap;rounded=0;" vertex="1" parent="1">
          <mxGeometry x="290" y="700" width="60" height="30" as="geometry" />
        </mxCell>
        <mxCell id="z5xuCMSu4rYJhh60pKTj-62" style="edgeStyle=orthogonalEdgeStyle;rounded=0;orthogonalLoop=1;jettySize=auto;html=1;exitX=0.5;exitY=0;exitDx=0;exitDy=0;" edge="1" parent="1" source="z5xuCMSu4rYJhh60pKTj-60">
          <mxGeometry relative="1" as="geometry">
            <mxPoint x="320" y="550" as="targetPoint" />
          </mxGeometry>
        </mxCell>
        <mxCell id="z5xuCMSu4rYJhh60pKTj-60" value="linear layer" style="rounded=0;whiteSpace=wrap;html=1;" vertex="1" parent="1">
          <mxGeometry x="260" y="590" width="120" height="40" as="geometry" />
        </mxCell>
        <mxCell id="z5xuCMSu4rYJhh60pKTj-63" value="linear layer" style="rounded=0;whiteSpace=wrap;html=1;" vertex="1" parent="1">
          <mxGeometry x="40" y="520" width="340" height="30" as="geometry" />
        </mxCell>
        <mxCell id="z5xuCMSu4rYJhh60pKTj-64" style="edgeStyle=orthogonalEdgeStyle;rounded=0;orthogonalLoop=1;jettySize=auto;html=1;exitX=0.5;exitY=0;exitDx=0;exitDy=0;entryX=0.296;entryY=1.025;entryDx=0;entryDy=0;entryPerimeter=0;" edge="1" parent="1" source="z5xuCMSu4rYJhh60pKTj-47" target="z5xuCMSu4rYJhh60pKTj-63">
          <mxGeometry relative="1" as="geometry" />
        </mxCell>
        <mxCell id="z5xuCMSu4rYJhh60pKTj-65" style="edgeStyle=orthogonalEdgeStyle;rounded=0;orthogonalLoop=1;jettySize=auto;html=1;exitX=0.5;exitY=0;exitDx=0;exitDy=0;entryX=0.288;entryY=1.042;entryDx=0;entryDy=0;entryPerimeter=0;" edge="1" parent="1" target="z5xuCMSu4rYJhh60pKTj-69">
          <mxGeometry relative="1" as="geometry">
            <mxPoint x="199" y="480" as="targetPoint" />
            <mxPoint x="199" y="520" as="sourcePoint" />
          </mxGeometry>
        </mxCell>
        <mxCell id="z5xuCMSu4rYJhh60pKTj-72" style="edgeStyle=orthogonalEdgeStyle;rounded=0;orthogonalLoop=1;jettySize=auto;html=1;exitX=0.5;exitY=0;exitDx=0;exitDy=0;entryX=0.5;entryY=1;entryDx=0;entryDy=0;" edge="1" parent="1" source="z5xuCMSu4rYJhh60pKTj-66" target="z5xuCMSu4rYJhh60pKTj-68">
          <mxGeometry relative="1" as="geometry" />
        </mxCell>
        <mxCell id="z5xuCMSu4rYJhh60pKTj-66" value="linear layer" style="rounded=0;whiteSpace=wrap;html=1;" vertex="1" parent="1">
          <mxGeometry x="400" y="650" width="120" height="35" as="geometry" />
        </mxCell>
        <mxCell id="z5xuCMSu4rYJhh60pKTj-67" value="linear layer" style="rounded=0;whiteSpace=wrap;html=1;" vertex="1" parent="1">
          <mxGeometry x="400" y="520" width="120" height="35" as="geometry" />
        </mxCell>
        <mxCell id="z5xuCMSu4rYJhh60pKTj-71" style="edgeStyle=orthogonalEdgeStyle;rounded=0;orthogonalLoop=1;jettySize=auto;html=1;exitX=0.5;exitY=0;exitDx=0;exitDy=0;entryX=0.5;entryY=1;entryDx=0;entryDy=0;" edge="1" parent="1" source="z5xuCMSu4rYJhh60pKTj-68" target="z5xuCMSu4rYJhh60pKTj-67">
          <mxGeometry relative="1" as="geometry" />
        </mxCell>
        <mxCell id="z5xuCMSu4rYJhh60pKTj-68" value="linear layer" style="rounded=0;whiteSpace=wrap;html=1;" vertex="1" parent="1">
          <mxGeometry x="400" y="592.5" width="120" height="35" as="geometry" />
        </mxCell>
        <mxCell id="z5xuCMSu4rYJhh60pKTj-77" style="edgeStyle=orthogonalEdgeStyle;rounded=0;orthogonalLoop=1;jettySize=auto;html=1;exitX=0.5;exitY=0;exitDx=0;exitDy=0;entryX=0.5;entryY=1;entryDx=0;entryDy=0;" edge="1" parent="1" source="z5xuCMSu4rYJhh60pKTj-69" target="z5xuCMSu4rYJhh60pKTj-76">
          <mxGeometry relative="1" as="geometry" />
        </mxCell>
        <mxCell id="z5xuCMSu4rYJhh60pKTj-69" value="linear layer" style="rounded=0;whiteSpace=wrap;html=1;" vertex="1" parent="1">
          <mxGeometry x="90" y="461" width="380" height="30" as="geometry" />
        </mxCell>
        <mxCell id="z5xuCMSu4rYJhh60pKTj-70" style="edgeStyle=orthogonalEdgeStyle;rounded=0;orthogonalLoop=1;jettySize=auto;html=1;exitX=0.5;exitY=0;exitDx=0;exitDy=0;entryX=0.961;entryY=1.025;entryDx=0;entryDy=0;entryPerimeter=0;" edge="1" parent="1" source="z5xuCMSu4rYJhh60pKTj-67" target="z5xuCMSu4rYJhh60pKTj-69">
          <mxGeometry relative="1" as="geometry" />
        </mxCell>
        <mxCell id="z5xuCMSu4rYJhh60pKTj-73" value="task features" style="text;html=1;align=center;verticalAlign=middle;whiteSpace=wrap;rounded=0;" vertex="1" parent="1">
          <mxGeometry x="430" y="700" width="80" height="30" as="geometry" />
        </mxCell>
        <mxCell id="z5xuCMSu4rYJhh60pKTj-74" style="edgeStyle=orthogonalEdgeStyle;rounded=0;orthogonalLoop=1;jettySize=auto;html=1;exitX=0.5;exitY=0;exitDx=0;exitDy=0;entryX=0.588;entryY=0.964;entryDx=0;entryDy=0;entryPerimeter=0;" edge="1" parent="1">
          <mxGeometry relative="1" as="geometry">
            <mxPoint x="462" y="700" as="sourcePoint" />
            <mxPoint x="462.55999999999995" y="683.74" as="targetPoint" />
          </mxGeometry>
        </mxCell>
        <mxCell id="z5xuCMSu4rYJhh60pKTj-78" style="edgeStyle=orthogonalEdgeStyle;rounded=0;orthogonalLoop=1;jettySize=auto;html=1;exitX=0.5;exitY=0;exitDx=0;exitDy=0;" edge="1" parent="1" source="z5xuCMSu4rYJhh60pKTj-76">
          <mxGeometry relative="1" as="geometry">
            <mxPoint x="280" y="410" as="targetPoint" />
          </mxGeometry>
        </mxCell>
        <mxCell id="z5xuCMSu4rYJhh60pKTj-76" value="softmax" style="rounded=0;whiteSpace=wrap;html=1;" vertex="1" parent="1">
          <mxGeometry x="130" y="426" width="300" height="20" as="geometry" />
        </mxCell>
        <mxCell id="z5xuCMSu4rYJhh60pKTj-79" value="action output" style="text;html=1;align=center;verticalAlign=middle;whiteSpace=wrap;rounded=0;" vertex="1" parent="1">
          <mxGeometry x="238" y="385" width="90" height="30" as="geometry" />
        </mxCell>
      </root>
    </mxGraphModel>
  </diagram>
</mxfile>
